# Blender 3.4.1
# www.blender.org
mtllib field.mtl
o Cube.002
v -0.947618 0.222202 3.176268
v -1.893652 0.222202 2.230233
v -1.018227 0.222202 3.173378
v -1.092304 0.222202 3.164610
v -1.165464 0.222202 3.150058
v -1.237257 0.222202 3.129810
v -1.307240 0.222202 3.103992
v -1.374982 0.222202 3.072763
v -1.440064 0.222202 3.036315
v -1.502087 0.222202 2.994873
v -1.560667 0.222202 2.948692
v -1.615442 0.222202 2.898058
v -1.666076 0.222202 2.843282
v -1.712257 0.222202 2.784703
v -1.753699 0.222202 2.722680
v -1.790147 0.222202 2.657598
v -1.821376 0.222202 2.589856
v -1.847194 0.222202 2.519873
v -1.867442 0.222202 2.448080
v -1.881995 0.222202 2.374919
v -1.890762 0.222202 2.300843
v -1.893652 0.122202 2.230233
v -0.947618 0.122202 3.176268
v -1.890762 0.122202 2.300843
v -1.881995 0.122202 2.374919
v -1.867442 0.122202 2.448080
v -1.847194 0.122202 2.519873
v -1.821376 0.122202 2.589856
v -1.790147 0.122202 2.657598
v -1.753699 0.122202 2.722680
v -1.712257 0.122202 2.784703
v -1.666076 0.122202 2.843282
v -1.615442 0.122202 2.898058
v -1.560667 0.122202 2.948692
v -1.502087 0.122202 2.994873
v -1.440064 0.122202 3.036315
v -1.374982 0.122202 3.072763
v -1.307240 0.122202 3.103992
v -1.237257 0.122202 3.129810
v -1.165464 0.122202 3.150058
v -1.092304 0.122202 3.164610
v -1.018227 0.122202 3.173378
v 1.560236 0.222202 3.176268
v 2.506271 0.222202 2.230233
v 1.630845 0.222202 3.173378
v 1.704922 0.222202 3.164610
v 1.778082 0.222202 3.150058
v 1.849875 0.222202 3.129810
v 1.919858 0.222202 3.103992
v 1.987600 0.222202 3.072763
v 2.052683 0.222202 3.036315
v 2.114705 0.222202 2.994873
v 2.173285 0.222202 2.948692
v 2.228061 0.222202 2.898058
v 2.278695 0.222202 2.843282
v 2.324875 0.222202 2.784703
v 2.366317 0.222202 2.722680
v 2.402766 0.222202 2.657598
v 2.433995 0.222202 2.589856
v 2.459813 0.222202 2.519873
v 2.480061 0.222202 2.448080
v 2.494613 0.222202 2.374919
v 2.503381 0.222202 2.300843
v 2.506271 0.122202 2.230233
v 1.560236 0.122202 3.176268
v 2.503381 0.122202 2.300843
v 2.494613 0.122202 2.374919
v 2.480061 0.122202 2.448080
v 2.459813 0.122202 2.519873
v 2.433995 0.122202 2.589856
v 2.402766 0.122202 2.657598
v 2.366317 0.122202 2.722680
v 2.324875 0.122202 2.784703
v 2.278695 0.122202 2.843282
v 2.228061 0.122202 2.898058
v 2.173285 0.122202 2.948692
v 2.114705 0.122202 2.994873
v 2.052683 0.122202 3.036315
v 1.987600 0.122202 3.072763
v 1.919858 0.122202 3.103992
v 1.849875 0.122202 3.129810
v 1.778082 0.122202 3.150058
v 1.704922 0.122202 3.164610
v 1.630845 0.122202 3.173378
v -1.893652 0.122202 -2.277620
v -1.893652 0.222202 -2.277620
v -1.893652 0.122202 2.230233
v -1.893652 0.222202 2.230233
v -0.947618 0.222202 -3.223655
v -1.893652 0.222202 -2.277620
v -1.018227 0.222202 -3.220765
v -1.092304 0.222202 -3.211998
v -1.165464 0.222202 -3.197445
v -1.237257 0.222202 -3.177197
v -1.307240 0.222202 -3.151379
v -1.374982 0.222202 -3.120150
v -1.440064 0.222202 -3.083702
v -1.502087 0.222202 -3.042260
v -1.560667 0.222202 -2.996079
v -1.615442 0.222202 -2.945445
v -1.666076 0.222202 -2.890669
v -1.712257 0.222202 -2.832089
v -1.753699 0.222202 -2.770067
v -1.790147 0.222202 -2.704984
v -1.821376 0.222202 -2.637243
v -1.847194 0.222202 -2.567260
v -1.867442 0.222202 -2.495467
v -1.881995 0.222202 -2.422307
v -1.890762 0.222202 -2.348230
v -1.893652 0.122202 -2.277620
v -0.947618 0.122202 -3.223655
v -1.890762 0.122202 -2.348230
v -1.881995 0.122202 -2.422307
v -1.867442 0.122202 -2.495467
v -1.847194 0.122202 -2.567260
v -1.821376 0.122202 -2.637243
v -1.790147 0.122202 -2.704984
v -1.753699 0.122202 -2.770067
v -1.712257 0.122202 -2.832089
v -1.666076 0.122202 -2.890669
v -1.615442 0.122202 -2.945445
v -1.560667 0.122202 -2.996079
v -1.502087 0.122202 -3.042260
v -1.440064 0.122202 -3.083702
v -1.374982 0.122202 -3.120150
v -1.307240 0.122202 -3.151379
v -1.237257 0.122202 -3.177197
v -1.165464 0.122202 -3.197445
v -1.092304 0.122202 -3.211998
v -1.018227 0.122202 -3.220765
v 1.560236 0.222202 -3.223655
v 2.506271 0.222202 -2.277620
v 1.630845 0.222202 -3.220765
v 1.704922 0.222202 -3.211998
v 1.778082 0.222202 -3.197445
v 1.849875 0.222202 -3.177197
v 1.919858 0.222202 -3.151379
v 1.987600 0.222202 -3.120150
v 2.052683 0.222202 -3.083702
v 2.114705 0.222202 -3.042260
v 2.173285 0.222202 -2.996079
v 2.228061 0.222202 -2.945445
v 2.278695 0.222202 -2.890669
v 2.324875 0.222202 -2.832089
v 2.366317 0.222202 -2.770067
v 2.402766 0.222202 -2.704984
v 2.433995 0.222202 -2.637243
v 2.459813 0.222202 -2.567260
v 2.480061 0.222202 -2.495467
v 2.494613 0.222202 -2.422307
v 2.503381 0.222202 -2.348230
v 2.506271 0.122202 -2.277620
v 1.560236 0.122202 -3.223655
v 2.503381 0.122202 -2.348230
v 2.494613 0.122202 -2.422307
v 2.480061 0.122202 -2.495467
v 2.459813 0.122202 -2.567260
v 2.433995 0.122202 -2.637243
v 2.402766 0.122202 -2.704984
v 2.366317 0.122202 -2.770067
v 2.324875 0.122202 -2.832089
v 2.278695 0.122202 -2.890669
v 2.228061 0.122202 -2.945445
v 2.173285 0.122202 -2.996079
v 2.114705 0.122202 -3.042260
v 2.052683 0.122202 -3.083702
v 1.987600 0.122202 -3.120150
v 1.919858 0.122202 -3.151379
v 1.849875 0.122202 -3.177197
v 1.778082 0.122202 -3.197445
v 1.704922 0.122202 -3.211998
v 1.630845 0.122202 -3.220765
vn -0.0409 -0.0000 0.9992
vn -0.1175 -0.0000 0.9931
vn -0.1951 -0.0000 0.9808
vn -0.2714 -0.0000 0.9625
vn -0.3461 -0.0000 0.9382
vn -0.4187 -0.0000 0.9081
vn -0.4886 -0.0000 0.8725
vn -0.5556 -0.0000 0.8315
vn -0.6191 -0.0000 0.7853
vn -0.6788 -0.0000 0.7343
vn -0.7343 -0.0000 0.6788
vn -0.7853 -0.0000 0.6191
vn -0.8315 -0.0000 0.5556
vn -0.8725 -0.0000 0.4886
vn -0.9081 -0.0000 0.4187
vn -0.9382 -0.0000 0.3461
vn -0.9625 -0.0000 0.2714
vn -0.9808 -0.0000 0.1951
vn -0.9931 -0.0000 0.1175
vn -0.9992 -0.0000 0.0409
vn 0.0409 -0.0000 0.9992
vn 0.1175 -0.0000 0.9931
vn 0.1951 -0.0000 0.9808
vn 0.2714 -0.0000 0.9625
vn 0.3461 -0.0000 0.9382
vn 0.4187 -0.0000 0.9081
vn 0.4886 -0.0000 0.8725
vn 0.5556 -0.0000 0.8315
vn 0.6191 -0.0000 0.7853
vn 0.6788 -0.0000 0.7343
vn 0.7343 -0.0000 0.6788
vn 0.7853 -0.0000 0.6191
vn 0.8315 -0.0000 0.5556
vn 0.8725 -0.0000 0.4886
vn 0.9081 -0.0000 0.4187
vn 0.9382 -0.0000 0.3461
vn 0.9625 -0.0000 0.2714
vn 0.9808 -0.0000 0.1951
vn 0.9931 -0.0000 0.1175
vn 0.9992 -0.0000 0.0409
vn 1.0000 -0.0000 -0.0000
vn -1.0000 -0.0000 -0.0000
vn -0.0409 -0.0000 -0.9992
vn -0.1175 -0.0000 -0.9931
vn -0.1951 -0.0000 -0.9808
vn -0.2714 -0.0000 -0.9625
vn -0.3461 -0.0000 -0.9382
vn -0.4187 -0.0000 -0.9081
vn -0.4886 -0.0000 -0.8725
vn -0.5556 -0.0000 -0.8315
vn -0.6191 -0.0000 -0.7853
vn -0.6788 -0.0000 -0.7343
vn -0.7343 -0.0000 -0.6788
vn -0.7853 -0.0000 -0.6191
vn -0.8315 -0.0000 -0.5556
vn -0.8725 -0.0000 -0.4886
vn -0.9081 -0.0000 -0.4187
vn -0.9382 -0.0000 -0.3461
vn -0.9625 -0.0000 -0.2714
vn -0.9808 -0.0000 -0.1951
vn -0.9931 -0.0000 -0.1175
vn -0.9992 -0.0000 -0.0409
vn -0.0000 1.0000 -0.0000
vn -0.0000 -1.0000 -0.0000
vn -0.0000 -0.0000 -1.0000
vn 0.0409 -0.0000 -0.9992
vn 0.1175 -0.0000 -0.9931
vn 0.1951 -0.0000 -0.9808
vn 0.2714 -0.0000 -0.9625
vn 0.3461 -0.0000 -0.9382
vn 0.4187 -0.0000 -0.9081
vn 0.4886 -0.0000 -0.8725
vn 0.5556 -0.0000 -0.8315
vn 0.6191 -0.0000 -0.7853
vn 0.6788 -0.0000 -0.7343
vn 0.7343 -0.0000 -0.6788
vn 0.7853 -0.0000 -0.6191
vn 0.8315 -0.0000 -0.5556
vn 0.8725 -0.0000 -0.4886
vn 0.9081 -0.0000 -0.4187
vn 0.9382 -0.0000 -0.3461
vn 0.9625 -0.0000 -0.2714
vn 0.9808 -0.0000 -0.1951
vn 0.9931 -0.0000 -0.1175
vn 0.9992 -0.0000 -0.0409
vn -0.0000 -0.0000 1.0000
vt 0.625000 0.343750
vt 0.625000 0.156250
vt 0.625000 0.336394
vt 0.625000 0.329084
vt 0.625000 0.321864
vt 0.625000 0.314780
vt 0.625000 0.307873
vt 0.625000 0.301188
vt 0.625000 0.294766
vt 0.625000 0.288645
vt 0.625000 0.282864
vt 0.625000 0.250000
vt 0.625000 0.217136
vt 0.625000 0.211355
vt 0.625000 0.205234
vt 0.625000 0.198812
vt 0.625000 0.192127
vt 0.625000 0.185220
vt 0.625000 0.178135
vt 0.625000 0.170916
vt 0.625000 0.163606
vt 0.375000 0.156250
vt 0.375000 0.343750
vt 0.375000 0.163606
vt 0.375000 0.170916
vt 0.375000 0.178135
vt 0.375000 0.185220
vt 0.375000 0.192127
vt 0.375000 0.198812
vt 0.375000 0.205234
vt 0.375000 0.211355
vt 0.375000 0.217136
vt 0.375000 0.250000
vt 0.375000 0.282864
vt 0.375000 0.288645
vt 0.375000 0.294766
vt 0.375000 0.301188
vt 0.375000 0.307873
vt 0.375000 0.314780
vt 0.375000 0.321864
vt 0.375000 0.329084
vt 0.375000 0.336394
vt 0.625000 0.343750
vt 0.625000 0.156250
vt 0.625000 0.336394
vt 0.625000 0.329084
vt 0.625000 0.321864
vt 0.625000 0.314780
vt 0.625000 0.307873
vt 0.625000 0.301188
vt 0.625000 0.294766
vt 0.625000 0.288645
vt 0.625000 0.282864
vt 0.625000 0.250000
vt 0.625000 0.217136
vt 0.625000 0.211355
vt 0.625000 0.205234
vt 0.625000 0.198812
vt 0.625000 0.192127
vt 0.625000 0.185220
vt 0.625000 0.178135
vt 0.625000 0.170916
vt 0.625000 0.163606
vt 0.375000 0.156250
vt 0.375000 0.343750
vt 0.375000 0.163606
vt 0.375000 0.170916
vt 0.375000 0.178135
vt 0.375000 0.185220
vt 0.375000 0.192127
vt 0.375000 0.198812
vt 0.375000 0.205234
vt 0.375000 0.211355
vt 0.375000 0.217136
vt 0.375000 0.250000
vt 0.375000 0.282864
vt 0.375000 0.288645
vt 0.375000 0.294766
vt 0.375000 0.301188
vt 0.375000 0.307873
vt 0.375000 0.314780
vt 0.375000 0.321864
vt 0.375000 0.329084
vt 0.375000 0.336394
vt 0.000000 0.000000
vt 0.000000 0.000000
vt 0.625000 0.343750
vt 0.625000 0.156250
vt 0.625000 0.336394
vt 0.625000 0.329084
vt 0.625000 0.321864
vt 0.625000 0.314780
vt 0.625000 0.307873
vt 0.625000 0.301188
vt 0.625000 0.294766
vt 0.625000 0.288645
vt 0.625000 0.282864
vt 0.625000 0.250000
vt 0.625000 0.217136
vt 0.625000 0.211355
vt 0.625000 0.205234
vt 0.625000 0.198812
vt 0.625000 0.192127
vt 0.625000 0.185220
vt 0.625000 0.178135
vt 0.625000 0.170916
vt 0.625000 0.163606
vt 0.375000 0.156250
vt 0.375000 0.343750
vt 0.375000 0.163606
vt 0.375000 0.170916
vt 0.375000 0.178135
vt 0.375000 0.185220
vt 0.375000 0.192127
vt 0.375000 0.198812
vt 0.375000 0.205234
vt 0.375000 0.211355
vt 0.375000 0.217136
vt 0.375000 0.250000
vt 0.375000 0.282864
vt 0.375000 0.288645
vt 0.375000 0.294766
vt 0.375000 0.301188
vt 0.375000 0.307873
vt 0.375000 0.314780
vt 0.375000 0.321864
vt 0.375000 0.329084
vt 0.375000 0.336394
vt 0.625000 0.343750
vt 0.625000 0.156250
vt 0.625000 0.336394
vt 0.625000 0.329084
vt 0.625000 0.321864
vt 0.625000 0.314780
vt 0.625000 0.307873
vt 0.625000 0.301188
vt 0.625000 0.294766
vt 0.625000 0.288645
vt 0.625000 0.282864
vt 0.625000 0.250000
vt 0.625000 0.217136
vt 0.625000 0.211355
vt 0.625000 0.205234
vt 0.625000 0.198812
vt 0.625000 0.192127
vt 0.625000 0.185220
vt 0.625000 0.178135
vt 0.625000 0.170916
vt 0.625000 0.163606
vt 0.375000 0.156250
vt 0.375000 0.343750
vt 0.375000 0.163606
vt 0.375000 0.170916
vt 0.375000 0.178135
vt 0.375000 0.185220
vt 0.375000 0.192127
vt 0.375000 0.198812
vt 0.375000 0.205234
vt 0.375000 0.211355
vt 0.375000 0.217136
vt 0.375000 0.250000
vt 0.375000 0.282864
vt 0.375000 0.288645
vt 0.375000 0.294766
vt 0.375000 0.301188
vt 0.375000 0.307873
vt 0.375000 0.314780
vt 0.375000 0.321864
vt 0.375000 0.329084
vt 0.375000 0.336394
s 0
usemtl Material.002
f 1/1/1 3/3/1 42/42/1 23/23/1
f 3/3/2 4/4/2 41/41/2 42/42/2
f 4/4/3 5/5/3 40/40/3 41/41/3
f 5/5/4 6/6/4 39/39/4 40/40/4
f 6/6/5 7/7/5 38/38/5 39/39/5
f 7/7/6 8/8/6 37/37/6 38/38/6
f 8/8/7 9/9/7 36/36/7 37/37/7
f 9/9/8 10/10/8 35/35/8 36/36/8
f 10/10/9 11/11/9 34/34/9 35/35/9
f 11/11/10 12/12/10 33/33/10 34/34/10
f 12/12/11 13/13/11 32/32/11 33/33/11
f 13/13/12 14/14/12 31/31/12 32/32/12
f 14/14/13 15/15/13 30/30/13 31/31/13
f 15/15/14 16/16/14 29/29/14 30/30/14
f 16/16/15 17/17/15 28/28/15 29/29/15
f 17/17/16 18/18/16 27/27/16 28/28/16
f 18/18/17 19/19/17 26/26/17 27/27/17
f 19/19/18 20/20/18 25/25/18 26/26/18
f 20/20/19 21/21/19 24/24/19 25/25/19
f 21/21/20 2/2/20 22/22/20 24/24/20
f 88/86/42 90/88/42 110/108/42 87/85/42
f 3/3/63 1/1/63 43/43/63 45/45/63 46/46/63 47/47/63 48/48/63 49/49/63 50/50/63 51/51/63 52/52/63 53/53/63 54/54/63 55/55/63 56/56/63 57/57/63 58/58/63 59/59/63 60/60/63 61/61/63 62/62/63 63/63/63 44/44/63 132/130/63 151/149/63 150/148/63 149/147/63 148/146/63 147/145/63 146/144/63 145/143/63 144/142/63 143/141/63 142/140/63 141/139/63 140/138/63 139/137/63 138/136/63 137/135/63 136/134/63 135/133/63 134/132/63 133/131/63 131/129/63 89/87/63 91/89/63 92/90/63 93/91/63 94/92/63 95/93/63 96/94/63 97/95/63 98/96/63 99/97/63 100/98/63 101/99/63 102/100/63 103/101/63 104/102/63 105/103/63 106/104/63 107/105/63 108/106/63 109/107/63 90/88/63 88/86/63 21/21/63 20/20/63 19/19/63 18/18/63 17/17/63 16/16/63 15/15/63 14/14/63 13/13/63 12/12/63 11/11/63 10/10/63 9/9/63 8/8/63 7/7/63 6/6/63 5/5/63 4/4/63
f 23/23/64 42/42/64 41/41/64 40/40/64 39/39/64 38/38/64 37/37/64 36/36/64 35/35/64 34/34/64 33/33/64 32/32/64 31/31/64 30/30/64 29/29/64 28/28/64 27/27/64 26/26/64 25/25/64 24/24/64 87/85/64 110/108/64 112/110/64 113/111/64 114/112/64 115/113/64 116/114/64 117/115/64 118/116/64 119/117/64 120/118/64 121/119/64 122/120/64 123/121/64 124/122/64 125/123/64 126/124/64 127/125/64 128/126/64 129/127/64 130/128/64 111/109/64 153/151/64 172/170/64 171/169/64 170/168/64 169/167/64 168/166/64 167/165/64 166/164/64 165/163/64 164/162/64 163/161/64 162/160/64 161/159/64 160/158/64 159/157/64 158/156/64 157/155/64 156/154/64 155/153/64 154/152/64 152/150/64 64/64/64 66/66/64 67/67/64 68/68/64 69/69/64 70/70/64 71/71/64 72/72/64 73/73/64 74/74/64 75/75/64 76/76/64 77/77/64 78/78/64 79/79/64 80/80/64 81/81/64 82/82/64 83/83/64 84/84/64 65/65/64
f 23/23/86 65/65/86 43/43/86 1/1/86
usemtl Material
f 43/43/21 65/65/21 84/84/21 45/45/21
f 45/45/22 84/84/22 83/83/22 46/46/22
f 46/46/23 83/83/23 82/82/23 47/47/23
f 47/47/24 82/82/24 81/81/24 48/48/24
f 48/48/25 81/81/25 80/80/25 49/49/25
f 49/49/26 80/80/26 79/79/26 50/50/26
f 50/50/27 79/79/27 78/78/27 51/51/27
f 51/51/28 78/78/28 77/77/28 52/52/28
f 52/52/29 77/77/29 76/76/29 53/53/29
f 53/53/30 76/76/30 75/75/30 54/54/30
f 54/54/31 75/75/31 74/74/31 55/55/31
f 55/55/32 74/74/32 73/73/32 56/56/32
f 56/56/33 73/73/33 72/72/33 57/57/33
f 57/57/34 72/72/34 71/71/34 58/58/34
f 58/58/35 71/71/35 70/70/35 59/59/35
f 59/59/36 70/70/36 69/69/36 60/60/36
f 60/60/37 69/69/37 68/68/37 61/61/37
f 61/61/38 68/68/38 67/67/38 62/62/38
f 62/62/39 67/67/39 66/66/39 63/63/39
f 63/63/40 66/66/40 64/64/40 44/44/40
f 44/44/41 64/64/41 152/150/41 132/130/41
usemtl Material.001
f 89/87/43 111/109/43 130/128/43 91/89/43
f 91/89/44 130/128/44 129/127/44 92/90/44
f 92/90/45 129/127/45 128/126/45 93/91/45
f 93/91/46 128/126/46 127/125/46 94/92/46
f 94/92/47 127/125/47 126/124/47 95/93/47
f 95/93/48 126/124/48 125/123/48 96/94/48
f 96/94/49 125/123/49 124/122/49 97/95/49
f 97/95/50 124/122/50 123/121/50 98/96/50
f 98/96/51 123/121/51 122/120/51 99/97/51
f 99/97/52 122/120/52 121/119/52 100/98/52
f 100/98/53 121/119/53 120/118/53 101/99/53
f 101/99/54 120/118/54 119/117/54 102/100/54
f 102/100/55 119/117/55 118/116/55 103/101/55
f 103/101/56 118/116/56 117/115/56 104/102/56
f 104/102/57 117/115/57 116/114/57 105/103/57
f 105/103/58 116/114/58 115/113/58 106/104/58
f 106/104/59 115/113/59 114/112/59 107/105/59
f 107/105/60 114/112/60 113/111/60 108/106/60
f 108/106/61 113/111/61 112/110/61 109/107/61
f 109/107/62 112/110/62 110/108/62 90/88/62
f 111/109/65 89/87/65 131/129/65 153/151/65
usemtl Material.003
f 131/129/66 133/131/66 172/170/66 153/151/66
f 133/131/67 134/132/67 171/169/67 172/170/67
f 134/132/68 135/133/68 170/168/68 171/169/68
f 135/133/69 136/134/69 169/167/69 170/168/69
f 136/134/70 137/135/70 168/166/70 169/167/70
f 137/135/71 138/136/71 167/165/71 168/166/71
f 138/136/72 139/137/72 166/164/72 167/165/72
f 139/137/73 140/138/73 165/163/73 166/164/73
f 140/138/74 141/139/74 164/162/74 165/163/74
f 141/139/75 142/140/75 163/161/75 164/162/75
f 142/140/76 143/141/76 162/160/76 163/161/76
f 143/141/77 144/142/77 161/159/77 162/160/77
f 144/142/78 145/143/78 160/158/78 161/159/78
f 145/143/79 146/144/79 159/157/79 160/158/79
f 146/144/80 147/145/80 158/156/80 159/157/80
f 147/145/81 148/146/81 157/155/81 158/156/81
f 148/146/82 149/147/82 156/154/82 157/155/82
f 149/147/83 150/148/83 155/153/83 156/154/83
f 150/148/84 151/149/84 154/152/84 155/153/84
f 151/149/85 132/130/85 152/150/85 154/152/85
l 110 85
l 22 87
l 2 88
l 90 86
